<svg height="512" viewBox="0 0 64 64" width="512" xmlns="http://www.w3.org/2000/svg"><path d="M59 27h-3.006a1.984 1.984 0 01-1.909-1.422 22.833 22.833 0 00-1.927-4.648 1.985 1.985 0 01.342-2.359l2.127-2.127a2 2 0 000-2.828l-4.243-4.243a2 2 0 00-2.828 0L45.429 11.5a1.985 1.985 0 01-2.359.342 22.833 22.833 0 00-4.648-1.927A1.982 1.982 0 0137 8.006V5a2 2 0 00-2-2h-6a2 2 0 00-2 2v3.006c0 .881-.576 1.663-1.422 1.909a22.833 22.833 0 00-4.648 1.927 1.985 1.985 0 01-2.359-.342l-2.127-2.127a2 2 0 00-2.828 0l-4.243 4.243a2 2 0 000 2.828l2.127 2.127c.624.624.768 1.585.342 2.359a22.833 22.833 0 00-1.927 4.648A1.982 1.982 0 018.006 27H5a2 2 0 00-2 2v6a2 2 0 002 2h3.006c.881 0 1.663.576 1.909 1.422a22.833 22.833 0 001.927 4.648 1.985 1.985 0 01-.342 2.359l-2.127 2.127a2 2 0 000 2.828l4.243 4.243a2 2 0 002.828 0l2.127-2.127a1.985 1.985 0 012.359-.342 22.833 22.833 0 004.648 1.927A1.982 1.982 0 0127 55.994V59a2 2 0 002 2h6a2 2 0 002-2v-3.006c0-.881.576-1.663 1.422-1.909a22.833 22.833 0 004.648-1.927 1.985 1.985 0 012.359.342l2.127 2.127a2 2 0 002.828 0l4.243-4.243a2 2 0 000-2.828L52.5 45.429a1.985 1.985 0 01-.342-2.359 22.833 22.833 0 001.927-4.648A1.982 1.982 0 0155.994 37H59a2 2 0 002-2v-6a2 2 0 00-2-2zM32 49c-9.389 0-17-7.611-17-17s7.611-17 17-17 17 7.611 17 17-7.611 17-17 17z" fill="#3449a3"/><path d="M9.915 38.422a22.793 22.793 0 001.591 3.997 1.982 1.982 0 00.335-2.349 22.833 22.833 0 01-1.927-4.648A1.98 1.98 0 008.006 34H5a2 2 0 01-2-2v3a2 2 0 002 2h3.006c.882 0 1.664.576 1.909 1.422zM27 52.994c0-.881-.576-1.663-1.422-1.909a22.833 22.833 0 01-4.648-1.927 1.985 1.985 0 00-2.359.342l-2.127 2.127a2 2 0 01-2.828 0L9.459 47.47l-.086.086a2 2 0 000 2.828l4.243 4.243a2 2 0 002.828 0l2.127-2.127a1.985 1.985 0 012.359-.342 22.833 22.833 0 004.648 1.927A1.982 1.982 0 0127 55.994zM59 34h-3.006c-.881 0-1.663.576-1.909 1.422a22.833 22.833 0 01-1.927 4.648 1.982 1.982 0 00.335 2.349 22.793 22.793 0 001.591-3.997A1.984 1.984 0 0155.994 37H59a2 2 0 002-2v-3a2 2 0 01-2 2zm-4.458 13.471l-4.157 4.157a2 2 0 01-2.828 0L45.429 49.5a1.985 1.985 0 00-2.359-.342 22.833 22.833 0 01-4.648 1.927A1.982 1.982 0 0037 52.994v3c0-.881.576-1.663 1.422-1.909a22.833 22.833 0 004.648-1.927 1.985 1.985 0 012.359.342l2.127 2.127a2 2 0 002.828 0l4.243-4.243a2 2 0 000-2.828zM35 58h-6a2 2 0 01-2-2v3a2 2 0 002 2h6a2 2 0 002-2v-3a2 2 0 01-2 2z" fill="#2e4191"/><path d="M60.396 9.604L55 15h-6V9l5.396-5.396A9.959 9.959 0 0051 3c-5.523 0-10 4.477-10 10 0 1.194.22 2.334.604 3.396L16.396 41.604A9.959 9.959 0 0013 41C7.477 41 3 45.477 3 51c0 1.194.22 2.334.604 3.396L9 49h6v6l-5.396 5.396A9.959 9.959 0 0013 61c5.523 0 10-4.477 10-10 0-1.194-.22-2.334-.604-3.396l25.208-25.208A9.959 9.959 0 0051 23c5.523 0 10-4.477 10-10 0-1.194-.22-2.334-.604-3.396z" fill="#ffd45a"/><path d="M51 20a9.959 9.959 0 01-3.396-.604L22.396 44.604c.281.776.471 1.595.555 2.445l24.654-24.654A9.925 9.925 0 0051 23c5.523 0 10-4.477 10-10 0-.512-.048-1.011-.124-1.501C60.151 16.309 56.012 20 51 20zM13 58c-.321 0-.638-.019-.951-.049l-2.445 2.445A9.959 9.959 0 0013 61c5.523 0 10-4.477 10-10 0-.512-.048-1.011-.124-1.501C22.151 54.309 18.012 58 13 58z" fill="#febe07"/><path d="M36.236 37.882A3.98 3.98 0 0135 35v-1.465a8.872 8.872 0 01-1.424.79 4.001 4.001 0 01-3.151 0 8.83 8.83 0 01-1.424-.79V35a3.98 3.98 0 01-1.236 2.882L32 40z" fill="#ffe5cf"/><path d="M34 21.049V21l.215 1.076A5.006 5.006 0 0039 26.098V23a6 6 0 00-6-6h-2a6 6 0 00-6 6v3.099l4.05-.044A5.007 5.007 0 0034 21.049z" fill="#633f0e"/><path d="M33.576 34.325a8.83 8.83 0 001.424-.79 8.938 8.938 0 004-7.436 5.006 5.006 0 01-4.785-4.022L34 21v.049a5.005 5.005 0 01-4.95 5.005l-4.05.045a8.938 8.938 0 004 7.436c.449.299.917.573 1.424.79a4.004 4.004 0 003.152 0z" fill="#ffe5cf"/><path d="M33 17h-2a6 6 0 00-6 6v1.901a6 6 0 016-6h2a6 6 0 016 6V23a6 6 0 00-6-6z" fill="#754b11"/><path d="M33.857 39.071l2.379-1.19A3.976 3.976 0 0135 35v-1.465a8.872 8.872 0 01-1.424.79 4.001 4.001 0 01-3.151 0 8.83 8.83 0 01-1.424-.79V34.7z" fill="#e8d0bc"/><path d="M27.764 37.882A3.983 3.983 0 0125 39a3.972 3.972 0 00-3 1.38c-.615.703-1 1.613-1 2.62v2h11v-5zm8.472 0A3.983 3.983 0 0039 39c1.202 0 2.267.541 3 1.38.615.703 1 1.613 1 2.62v2H32v-5z" fill="#8cbeff"/></svg>